<svg xmlns="http://www.w3.org/2000/svg" viewBox="0 0 1200 720" role="img" aria-labelledby="title desc"><title id="title">Plano dinámico del método de Newton</title><desc id="desc">Cuencas de atracción estilizadas para tres raíces con trayectorias iterativas.</desc><defs><radialGradient id="a" cx="30%" cy="30%"><stop stop-color="#d5a54a"/><stop offset="1" stop-color="#0f5b5d"/></radialGradient><radialGradient id="b" cx="70%" cy="35%"><stop stop-color="#5ab0a8"/><stop offset="1" stop-color="#071820"/></radialGradient><radialGradient id="c" cx="50%" cy="80%"><stop stop-color="#f2d38c"/><stop offset="1" stop-color="#143f46"/></radialGradient><filter id="blur"><feGaussianBlur stdDeviation="18"/></filter></defs><rect width="1200" height="720" fill="#06151c"/><g opacity=".95" filter="url(#blur)"><path d="M0 0h650L420 380 0 270z" fill="url(#a)"/><path d="M1200 0H560l220 380 420-120z" fill="url(#b)"/><path d="M0 720h1200L760 310 420 330z" fill="url(#c)"/></g><g fill="none" stroke="#fff" stroke-opacity=".5" stroke-width="3"><path d="M100 590C260 420 330 540 470 350S760 250 920 120"/><path d="M1100 590C970 470 860 560 760 390S520 220 300 120"/><path d="M590 650C610 500 520 480 600 360S700 220 610 90"/></g><g fill="#fff"><circle cx="250" cy="170" r="13"/><circle cx="950" cy="170" r="13"/><circle cx="600" cy="565" r="13"/></g><g fill="#d5a54a"><circle cx="100" cy="590" r="8"/><circle cx="1100" cy="590" r="8"/><circle cx="590" cy="650" r="8"/></g><text x="70" y="80" fill="#fff" font-family="Arial, sans-serif" font-size="34" font-weight="700">Dinámica de Newton</text><text x="70" y="120" fill="#d7e2e5" font-family="Arial, sans-serif" font-size="22">Cuencas de atracción y convergencia</text></svg>