<?xml version="1.0" standalone="no"?>
<!DOCTYPE svg PUBLIC "-//W3C//DTD SVG 20010904//EN"
 "http://www.w3.org/TR/2001/REC-SVG-20010904/DTD/svg10.dtd">
<svg version="1.0" xmlns="http://www.w3.org/2000/svg"
 width="1024.000000pt" height="1024.000000pt" viewBox="0 0 1024.000000 1024.000000"
 preserveAspectRatio="xMidYMid meet">
<metadata>
Created by potrace 1.16, written by Peter Selinger 2001-2019
</metadata>
<g transform="translate(0.000000,1024.000000) scale(0.100000,-0.100000)"
fill="#000000" stroke="none">
<path d="M4725 9618 c10 -45 45 -321 42 -325 -3 -2 -71 68 -153 157 -142 153
-151 160 -187 160 l-39 0 6 -47 c3 -27 10 -122 16 -213 6 -91 13 -184 16 -207
5 -42 6 -43 45 -43 46 0 43 -18 28 190 -6 83 -9 153 -6 156 2 3 71 -67 152
-156 142 -155 148 -160 186 -160 39 0 40 0 35 33 -3 17 -8 61 -11 97 -7 76
-33 300 -41 348 -5 31 -7 32 -50 32 -41 0 -44 -2 -39 -22z m78 -20 c6 -31 42
-342 49 -420 4 -37 3 -38 -27 -38 -27 0 -42 12 -100 78 -130 148 -225 243
-236 236 -11 -7 -8 -142 8 -286 l6 -58 -31 0 c-35 0 -33 -11 -52 265 -15 215
-15 225 14 225 17 0 57 -36 151 -137 71 -76 139 -149 152 -163 42 -45 47 -18
24 147 -27 191 -27 183 8 183 25 0 30 -5 34 -32z"/>
<path d="M5000 9618 c6 -13 48 -126 94 -253 l83 -230 37 -6 c30 -5 39 -2 47
13 9 16 203 434 215 464 4 8 -11 13 -40 15 l-45 4 -83 -187 c-45 -103 -85
-184 -89 -180 -3 4 -35 91 -70 195 l-64 187 -47 0 c-46 0 -47 -1 -38 -22z
m125 -130 c27 -79 57 -165 66 -193 10 -27 23 -50 31 -50 7 0 47 78 93 182 80
182 80 182 113 183 17 0 32 -2 32 -5 0 -6 -77 -175 -160 -353 -52 -110 -54
-113 -83 -110 -30 3 -32 6 -113 228 -45 124 -85 233 -89 243 -6 14 -2 17 27
17 l34 0 49 -142z"/>
<path d="M5612 9533 c-6 -43 -23 -154 -38 -246 -14 -93 -23 -171 -20 -174 5
-5 298 -53 303 -49 0 0 4 17 8 37 8 42 12 40 -133 60 -87 11 -93 13 -88 33 3
12 8 45 12 74 3 28 9 52 13 52 3 0 44 -7 91 -14 47 -8 85 -13 86 -13 1 1 4 18
7 38 l5 37 -61 7 c-126 14 -120 10 -112 74 4 31 10 59 13 63 4 4 54 0 110 -8
57 -9 105 -14 106 -12 2 2 6 19 9 39 l5 35 -131 18 c-73 10 -141 20 -153 22
-19 5 -22 -1 -32 -73z m298 -6 c0 -25 -3 -28 -22 -24 -57 14 -192 27 -199 20
-4 -4 -11 -38 -15 -74 -7 -76 -12 -72 104 -85 57 -6 62 -8 62 -31 0 -25 -1
-25 -62 -17 -128 16 -121 19 -137 -64 -8 -44 -10 -77 -5 -82 5 -5 56 -16 114
-25 57 -9 105 -17 107 -18 8 -9 -12 -47 -26 -47 -29 1 -261 37 -266 41 -4 5
61 438 69 465 3 7 48 4 140 -10 l136 -20 0 -29z"/>
<path d="M4150 9561 l-26 -6 45 -248 45 -248 41 7 c22 3 41 7 42 8 1 0 -9 57
-22 126 -12 69 -33 180 -45 248 -24 130 -22 128 -80 113z m70 -123 c12 -68 32
-176 44 -240 21 -111 22 -118 5 -118 -9 0 -24 -2 -31 -5 -11 -4 -22 40 -52
207 -21 117 -40 225 -43 240 -4 22 -1 27 18 31 13 2 27 5 30 6 3 0 16 -54 29
-121z"/>
<path d="M6140 9482 c-50 -25 -80 -75 -80 -132 0 -58 24 -91 90 -125 103 -52
134 -101 90 -145 -42 -42 -155 -14 -181 44 -11 24 -12 24 -45 8 -19 -8 -34
-22 -34 -31 0 -27 84 -97 133 -111 98 -27 179 6 213 87 34 79 11 135 -76 183
-94 53 -110 68 -110 99 0 78 123 87 175 12 l20 -29 34 24 34 23 -44 44 c-65
65 -149 84 -219 49z m169 -22 c35 -18 81 -66 70 -73 -2 -2 -12 -9 -21 -16 -15
-11 -21 -9 -44 18 -68 81 -200 49 -182 -45 3 -18 40 -48 133 -107 65 -41 78
-84 49 -154 -28 -66 -61 -88 -137 -88 -73 0 -141 34 -170 84 -17 29 -17 30 3
41 19 10 26 7 56 -24 59 -61 144 -70 184 -19 43 55 19 96 -88 153 -91 48 -115
112 -74 189 39 72 129 89 221 41z"/>
<path d="M3572 9415 c-73 -23 -136 -45 -139 -48 -4 -5 133 -476 141 -485 2 -2
72 18 156 45 l151 48 -6 35 c-4 19 -8 36 -9 37 -1 1 -51 -13 -112 -32 -60 -19
-112 -35 -116 -35 -7 0 -48 121 -48 141 0 4 41 20 90 35 l91 27 -7 31 c-3 17
-8 33 -10 35 -2 3 -44 -8 -94 -22 -49 -15 -91 -27 -93 -27 -6 0 -41 120 -36
123 2 2 47 16 99 32 52 15 98 31 103 34 11 10 -3 71 -17 70 -6 0 -71 -20 -144
-44z m151 9 c5 -29 3 -30 -119 -66 -42 -12 -78 -28 -82 -36 -7 -20 27 -122 43
-128 7 -3 50 6 95 21 46 14 84 24 85 23 1 -2 6 -13 9 -25 5 -16 2 -23 -11 -27
-147 -42 -163 -49 -163 -65 0 -31 42 -142 56 -148 7 -2 58 10 113 28 55 18
102 31 104 29 3 -3 7 -14 11 -26 6 -19 -5 -24 -136 -66 -79 -25 -144 -44 -145
-44 -1 1 -31 98 -67 216 -35 118 -68 222 -71 231 -5 13 4 21 37 32 47 17 219
74 229 76 4 0 9 -11 12 -25z"/>
<path d="M6506 9397 c-3 -14 -8 -31 -11 -39 -4 -10 15 -21 70 -38 41 -13 75
-26 75 -28 0 -3 -31 -94 -70 -203 -38 -110 -70 -203 -70 -207 0 -8 72 -35 75
-29 1 1 32 88 69 192 37 105 71 197 76 204 8 14 23 10 145 -36 10 -3 42 65 33
71 -1 1 -82 30 -178 63 -96 34 -182 64 -191 68 -12 4 -18 -1 -23 -18z m255
-78 l126 -43 -9 -28 -9 -27 -44 19 c-43 18 -115 36 -115 28 0 -7 -139 -391
-143 -395 -4 -4 -57 7 -57 11 0 1 32 91 71 200 38 110 68 204 66 210 -3 6 -34
22 -71 35 -36 13 -66 26 -66 30 0 3 3 16 6 27 l6 22 56 -23 c32 -12 114 -42
183 -66z"/>
<path d="M3110 9223 c-17 -6 -214 -94 -218 -97 -2 -2 152 -361 188 -438 10
-20 16 -24 29 -17 9 5 57 27 106 49 100 45 148 85 176 145 52 111 -15 286
-132 346 -36 18 -114 25 -149 12z m147 -24 c74 -36 127 -122 139 -225 9 -72
-28 -151 -89 -192 -41 -27 -207 -105 -212 -100 -2 2 -39 88 -84 191 -45 104
-88 201 -96 216 l-14 28 77 36 c156 73 206 82 279 46z"/>
<path d="M3054 9131 c-34 -16 -64 -32 -66 -37 -9 -14 137 -329 153 -331 23 -4
151 70 173 100 49 67 13 210 -68 269 -52 37 -109 37 -192 -1z m165 4 c44 -22
79 -71 97 -132 20 -70 13 -111 -29 -151 -34 -33 -149 -89 -154 -75 -2 4 -33
73 -69 153 -36 80 -66 149 -67 154 -3 13 124 65 161 66 18 0 46 -7 61 -15z"/>
<path d="M7006 9222 c-10 -17 -186 -452 -186 -460 0 -5 16 -16 35 -25 l36 -17
13 32 c31 75 156 376 169 408 l15 35 -39 17 c-21 9 -41 13 -43 10z m57 -31 c6
-6 -164 -435 -178 -449 -1 -1 -14 3 -28 9 l-26 12 19 49 c10 27 51 128 91 224
66 157 75 174 93 168 12 -3 25 -9 29 -13z"/>
<path d="M7249 9036 c-91 -32 -167 -133 -185 -243 -9 -55 11 -133 46 -182 38
-51 136 -101 199 -101 78 1 98 16 150 111 l48 86 -92 46 c-51 26 -95 47 -98
47 -7 0 -40 -61 -35 -64 2 -1 29 -15 61 -31 31 -15 57 -30 57 -32 0 -2 -11
-21 -25 -43 -22 -34 -30 -40 -61 -40 -77 0 -158 68 -169 143 -16 107 85 238
182 237 68 -1 148 -62 160 -122 5 -27 8 -28 42 -22 45 8 44 7 36 42 -28 128
-189 214 -316 168z m185 -27 c68 -35 98 -71 120 -146 6 -18 2 -22 -21 -25 -23
-3 -30 3 -52 46 -50 94 -160 122 -250 63 -56 -37 -106 -139 -99 -202 7 -61 47
-118 100 -144 44 -21 103 -27 124 -13 19 13 55 82 49 92 -4 6 -31 23 -61 38
-53 27 -54 28 -38 50 l15 22 82 -42 c45 -23 83 -43 85 -44 2 -1 -16 -37 -39
-79 -57 -104 -106 -125 -210 -90 -125 43 -191 165 -155 288 18 61 68 141 107
169 69 51 164 58 243 17z"/>
<path d="M2415 8831 c-76 -19 -143 -70 -178 -136 -30 -57 -30 -162 1 -230 47
-103 123 -155 225 -155 162 0 289 146 258 298 -21 104 -95 190 -187 218 -51
15 -72 16 -119 5z m142 -27 c83 -30 156 -143 156 -244 0 -225 -315 -328 -438
-142 -85 129 -57 299 61 368 73 43 135 48 221 18z"/>
<path d="M2367 8741 c-52 -34 -87 -91 -87 -144 0 -92 70 -195 146 -216 86 -23
198 40 224 125 17 56 -6 134 -56 192 -68 80 -144 95 -227 43z m146 10 c54 -21
123 -115 128 -176 4 -59 -1 -84 -27 -115 -58 -68 -163 -91 -230 -49 -36 22
-81 102 -90 161 -19 114 111 220 219 179z"/>
<path d="M4680 8755 c-685 -78 -1291 -326 -1842 -755 -110 -86 -405 -381 -500
-500 -360 -454 -575 -920 -682 -1475 -77 -402 -76 -900 4 -1295 285 -1417
1421 -2485 2890 -2716 609 -95 1232 -26 1830 203 332 127 639 304 927 536 583
467 1010 1135 1183 1851 72 296 95 526 87 866 -7 296 -34 496 -102 770 -137
547 -439 1072 -860 1496 -545 549 -1218 882 -2035 1006 -178 27 -708 34 -900
13z m860 -319 c1460 -208 2573 -1322 2719 -2721 61 -584 -37 -1139 -294 -1660
-459 -931 -1304 -1551 -2355 -1729 -652 -111 -1368 -3 -1965 296 -728 364
-1276 967 -1553 1708 -201 536 -244 1159 -121 1720 70 320 186 614 347 888
505 853 1396 1405 2442 1512 137 14 647 4 780 -14z"/>
<path d="M3417 7523 c-13 -12 -8 -130 6 -140 6 -6 62 -13 122 -16 156 -7 235
-40 269 -111 15 -31 16 -170 16 -1533 0 -874 -5 -1528 -10 -1570 -14 -110 -50
-168 -130 -209 -26 -13 -68 -19 -165 -23 l-130 -6 -3 -73 c-2 -45 2 -79 8 -88
10 -11 139 -13 760 -14 862 0 773 -13 768 108 l-3 67 -112 6 c-97 5 -120 10
-169 35 -32 16 -71 45 -86 64 -56 71 -58 100 -58 720 l0 565 29 61 c52 110
158 174 289 174 89 0 152 -31 227 -112 106 -114 194 -259 399 -656 73 -141
159 -300 190 -352 183 -300 362 -479 585 -586 186 -89 379 -129 584 -121 158
6 245 25 352 77 148 72 187 126 130 180 l-24 23 -63 -29 c-59 -27 -71 -29
-189 -29 l-125 0 -85 42 c-173 86 -337 264 -549 597 -47 73 -126 210 -175 305
-212 405 -404 701 -555 852 -87 87 -119 113 -188 147 -45 23 -109 46 -142 53
l-59 11 507 515 c609 619 737 731 947 833 96 47 178 69 287 78 l82 7 9 35 c5
19 6 54 2 77 l-6 43 -617 -2 -617 -3 -3 -61 c-4 -75 6 -84 90 -90 87 -6 110
-12 136 -36 52 -50 15 -130 -152 -323 -68 -79 -1276 -1295 -1286 -1295 -3 0
-3 318 0 707 5 649 7 712 23 753 47 119 112 163 270 183 53 7 102 18 109 25
13 13 16 111 4 131 -8 12 -1487 17 -1499 4z"/>
<path d="M3041 6874 c-21 -27 -21 -28 -21 -1206 l0 -1179 25 -24 24 -25 226 0
225 0 0 55 0 55 -195 0 -195 0 0 1120 0 1120 195 0 195 0 0 55 0 55 -229 0
-230 0 -20 -26z"/>
<path d="M3358 6385 c-57 -32 -76 -120 -36 -170 66 -84 186 -57 212 47 8 33
-12 85 -42 112 -28 25 -99 31 -134 11z"/>
<path d="M3361 5777 c-93 -47 -81 -188 18 -218 81 -24 151 30 151 116 0 22 -7
51 -16 63 -32 47 -103 65 -153 39z"/>
<path d="M3363 5165 c-106 -46 -85 -203 31 -222 78 -12 143 51 133 128 -6 47
-29 76 -74 95 -40 17 -49 17 -90 -1z"/>
<path d="M7700 8602 c-96 -60 -197 -122 -224 -139 l-48 -30 36 -28 36 -28 56
37 c64 43 52 45 169 -42 33 -25 61 -46 62 -47 1 0 -6 -29 -16 -63 l-19 -62 37
-29 38 -30 68 260 c37 142 66 261 64 262 -27 21 -69 47 -76 47 -4 0 -87 -49
-183 -108z m222 75 l28 -23 -65 -243 c-35 -134 -66 -245 -67 -246 -2 -2 -14 5
-27 16 -22 18 -23 22 -12 67 7 26 14 55 17 64 4 12 -15 32 -68 71 -121 89
-108 86 -172 44 l-55 -37 -26 23 -26 22 172 105 c95 58 190 117 213 132 50 33
54 33 88 5z"/>
<path d="M1954 8456 c-18 -8 -68 -46 -113 -86 l-81 -71 133 -151 c72 -82 146
-166 164 -187 l32 -36 31 31 31 30 -65 71 -65 70 60 49 c92 73 108 118 69 194
-40 78 -128 117 -196 86z m93 -7 c60 -23 113 -93 113 -151 0 -28 -11 -43 -75
-103 l-75 -70 26 -30 c15 -16 43 -47 62 -67 35 -37 35 -38 17 -58 -10 -11 -22
-20 -26 -20 -11 0 -310 343 -307 351 8 18 138 123 173 140 47 22 54 22 92 8z"/>
<path d="M1955 8381 c-16 -11 -45 -33 -64 -49 l-35 -29 31 -39 c17 -22 44 -51
60 -67 l29 -27 62 58 c73 68 77 89 28 138 -39 39 -68 43 -111 15z m104 -22
c17 -17 31 -40 31 -51 0 -13 -23 -42 -57 -74 l-58 -53 -52 57 -52 57 42 39
c71 65 101 70 146 25z"/>
<path d="M8124 8394 c-84 -30 -171 -138 -188 -234 -8 -48 14 -128 48 -173 31
-41 115 -86 174 -94 39 -5 39 -5 49 36 l11 41 -45 0 c-130 0 -198 132 -127
247 63 102 169 140 246 88 43 -29 82 -103 76 -144 -4 -25 0 -30 28 -39 37 -11
44 -3 44 50 0 54 -22 108 -64 155 -68 78 -156 101 -252 67z m195 -32 c25 -15
58 -47 73 -72 29 -47 45 -126 30 -148 -16 -24 -39 -2 -45 44 -5 50 -43 106
-91 135 -60 36 -145 17 -210 -47 -33 -33 -76 -118 -76 -151 0 -79 85 -163 165
-163 37 0 38 -2 28 -38 -5 -21 -10 -23 -39 -17 -127 23 -204 108 -204 225 0
66 24 122 76 180 84 93 195 113 293 52z"/>
<path d="M1616 8145 l-27 -35 68 -62 c178 -163 203 -192 203 -233 0 -33 -7
-45 -45 -82 -37 -35 -52 -43 -83 -43 -48 0 -74 17 -202 128 -57 51 -107 92
-110 91 -3 0 -16 -14 -29 -31 l-25 -31 40 -34 c217 -189 253 -213 318 -213 47
0 77 13 122 52 82 72 112 154 83 236 -6 18 -65 82 -149 161 l-138 131 -26 -35z
m207 -150 c121 -105 138 -184 59 -288 -74 -99 -169 -121 -259 -60 -53 35 -233
192 -233 202 0 5 8 18 18 30 17 20 18 20 107 -60 136 -122 161 -139 210 -139
31 0 53 8 83 30 48 34 62 57 62 100 0 51 -22 80 -144 189 -64 57 -116 107
-116 110 0 4 7 17 16 29 l16 23 56 -53 c32 -29 88 -80 125 -113z"/>
<path d="M8415 7919 c-94 -83 -174 -155 -179 -160 -6 -5 1 -20 19 -39 l28 -29
61 52 c33 29 115 100 181 158 l122 106 -27 31 c-15 18 -28 32 -31 32 -2 0 -81
-68 -174 -151z m205 78 c-8 -8 -67 -58 -130 -112 -63 -54 -136 -118 -161 -142
l-45 -43 -22 23 -23 24 173 155 173 156 25 -24 c21 -21 23 -26 10 -37z"/>
<path d="M8616 7806 c-88 -33 -168 -133 -181 -226 -20 -145 128 -300 261 -275
217 40 323 291 185 438 -59 65 -182 94 -265 63z m187 -21 c45 -21 97 -72 113
-112 20 -46 17 -140 -5 -189 -56 -123 -188 -192 -303 -158 -122 37 -196 196
-145 315 29 70 102 136 177 160 36 12 123 3 163 -16z"/>
<path d="M8623 7730 c-109 -55 -152 -174 -98 -266 67 -114 199 -117 296 -7 61
70 72 127 39 193 -45 89 -150 124 -237 80z m146 -4 c42 -22 89 -81 97 -121 5
-29 1 -48 -22 -92 -70 -136 -218 -165 -299 -59 -35 46 -42 95 -21 149 39 104
162 165 245 123z"/>
<path d="M1233 7631 c-47 -29 -165 -214 -147 -231 8 -8 260 -162 366 -223 l48
-28 20 33 c11 18 20 35 20 38 0 3 -31 22 -69 44 -38 21 -75 42 -81 46 -10 6
-8 15 8 37 20 29 20 29 99 22 142 -13 136 -15 161 36 15 31 18 45 10 44 -7 -1
-61 -1 -119 0 l-106 1 4 48 c5 59 -20 103 -76 132 -50 25 -97 26 -138 1z m120
-5 c18 -7 43 -26 57 -40 21 -23 25 -37 24 -87 -1 -47 2 -59 15 -60 60 -5 94
-7 148 -8 l62 -1 -17 -30 c-19 -33 -13 -32 -184 -14 -44 4 -47 3 -67 -29 -12
-19 -21 -37 -21 -40 0 -3 28 -22 63 -43 104 -63 98 -56 78 -83 l-18 -24 -99
58 c-150 88 -294 176 -298 184 -6 9 80 149 113 185 43 47 87 57 144 32z"/>
<path d="M1252 7565 c-26 -19 -82 -98 -82 -117 0 -14 124 -98 145 -98 20 0 76
104 77 142 1 23 -7 38 -31 60 -35 31 -75 36 -109 13z m97 -21 c37 -31 39 -60
10 -120 -33 -69 -39 -71 -113 -24 -36 23 -66 45 -66 49 0 11 30 53 63 89 37
39 65 41 106 6z"/>
<path d="M8895 7259 c-115 -59 -213 -109 -217 -111 -10 -4 23 -78 34 -78 5 0
19 6 31 14 12 7 80 44 150 81 71 37 127 69 125 71 -3 2 -72 -32 -154 -75
l-149 -79 -14 29 c-8 16 -13 31 -10 33 17 15 412 205 419 201 5 -3 11 -18 15
-34 5 -23 -12 -67 -86 -221 -62 -130 -88 -195 -81 -202 7 -7 58 14 160 65
l149 76 12 -26 c6 -14 10 -27 9 -28 -23 -18 -421 -215 -426 -210 -21 21 -1 89
72 240 91 186 112 234 97 220 -5 -5 -53 -101 -105 -213 l-95 -202 16 -35 16
-34 81 43 c45 24 145 76 223 115 l142 71 -17 32 c-9 18 -18 34 -18 36 -1 2
-70 -31 -154 -73 -84 -42 -154 -74 -156 -72 -2 2 27 69 65 148 116 243 116
244 101 289 -7 22 -16 39 -19 38 -3 0 -100 -50 -216 -109z"/>
<path d="M1012 7216 c-85 -30 -140 -134 -129 -243 13 -126 126 -230 262 -241
77 -6 120 13 175 76 76 86 88 200 28 267 -24 28 -143 105 -161 105 -3 0 -8
-21 -12 -47 -3 -27 -17 -67 -30 -90 -22 -41 -22 -42 -4 -59 23 -21 39 -10 64
46 17 39 18 39 46 25 58 -31 75 -93 43 -161 -25 -53 -59 -74 -118 -74 -67 1
-121 26 -173 83 -86 94 -61 210 52 238 l42 11 -9 39 c-11 42 -21 46 -76 25z
m67 -42 c1 -6 -19 -19 -44 -28 -104 -40 -127 -159 -48 -247 75 -83 199 -118
259 -73 91 67 103 177 26 229 -20 14 -40 25 -44 25 -4 0 -19 -23 -34 -50 -24
-43 -30 -49 -42 -37 -11 12 -10 19 7 48 11 18 23 53 27 76 3 24 9 43 13 43 23
0 138 -80 154 -108 53 -90 -4 -242 -110 -293 -104 -50 -262 15 -326 136 -31
58 -29 166 4 225 28 51 64 79 110 89 34 7 46 -2 48 -35z"/>
<path d="M2020 1150 l0 -530 105 0 105 0 0 173 0 172 41 50 c23 28 44 51 47
52 4 2 83 -99 176 -222 l169 -225 129 0 130 0 -33 43 c-19 23 -123 154 -232
291 l-198 248 25 32 c13 17 68 79 122 137 105 112 241 263 263 292 13 16 6 17
-120 17 l-134 -1 -190 -224 -190 -223 -3 224 -2 224 -105 0 -105 0 0 -530z"/>
<path d="M3170 1150 l0 -530 360 0 360 0 0 95 0 96 -255 -3 -255 -3 0 128 0
127 220 0 220 0 0 93 0 92 -225 -3 -225 -3 0 128 0 128 250 -3 250 -3 0 96 0
95 -350 0 -350 0 0 -530z"/>
<path d="M4175 1150 l0 -530 103 0 102 0 0 190 0 190 89 0 88 0 114 -190 114
-190 112 0 c62 0 113 2 113 5 0 6 -145 248 -180 300 -14 22 -36 56 -48 77
l-23 36 47 24 c66 33 131 108 150 176 32 108 0 266 -69 341 -78 84 -157 101
-472 101 l-240 0 0 -530z m515 325 c69 -40 94 -157 47 -225 -42 -63 -75 -74
-221 -75 l-131 0 -3 164 -3 163 138 -4 c116 -3 144 -7 173 -23z"/>
<path d="M5290 1150 l0 -530 100 0 100 0 0 366 0 367 48 -70 c26 -39 142 -203
257 -366 l210 -296 103 -1 102 0 0 530 0 530 -100 0 -100 0 0 -367 0 -367 -52
76 c-29 42 -147 207 -262 367 l-210 291 -98 0 -98 0 0 -530z"/>
<path d="M6540 1150 l0 -530 355 0 355 0 0 95 0 96 -250 -3 -250 -3 0 128 0
127 220 0 220 0 0 93 0 92 -220 0 -221 0 -1 123 0 123 246 0 246 0 0 94 0 95
-350 0 -350 0 0 -530z"/>
<path d="M7550 1150 l0 -530 351 0 352 0 -6 68 c-4 37 -7 79 -7 95 l0 27 -240
0 -240 0 0 435 0 435 -105 0 -105 0 0 -530z"/>
</g>
</svg>
